<svg xmlns="http://www.w3.org/2000/svg" xmlns:xlink="http://www.w3.org/1999/xlink" width="776.729" height="162.177" viewBox="0 0 582.54687 121.63281"><defs><symbol overflow="visible" id="a"><path d="M.97 0v-9.313h1.843l2.203 6.594c.207.618.36 1.075.453 1.376.1-.332.264-.828.483-1.484l2.234-6.485h1.657V0H8.656v-7.78L5.953 0h-1.11L2.157-7.922V0zm0 0"/></symbol><symbol overflow="visible" id="b"><path d="M5.28 0v-.984c-.53.76-1.245 1.14-2.14 1.14-.398 0-.773-.078-1.124-.234-.344-.156-.602-.348-.766-.578C1.082-.883.97-1.164.906-1.5.852-1.72.828-2.07.828-2.563v-4.17h1.14V-3c0 .594.024.996.08 1.203.07.305.222.543.452.72.227.167.516.25.86.25.343 0 .663-.087.968-.267.3-.176.516-.414.64-.718.126-.3.188-.74.188-1.313v-3.61h1.14V0zm0 0"/></symbol><symbol overflow="visible" id="c"><path d="M.828 0v-9.313h1.14V0zm0 0"/></symbol><symbol overflow="visible" id="d"><path d="M3.36-1.016l.156 1c-.325.07-.61.11-.86.11-.418 0-.742-.07-.97-.203-.23-.132-.39-.304-.483-.515-.094-.22-.14-.664-.14-1.344v-3.89h-.83v-.874h.83v-1.672l1.14-.688v2.36H3.36v.875H2.202v3.954c0 .324.02.53.063.625.04.093.1.167.187.218.094.054.223.078.39.078.134 0 .305-.008.516-.032zm0 0"/></symbol><symbol overflow="visible" id="e"><path d="M.86-7.984v-1.329H2v1.33zM.86 0v-6.734H2V0zm0 0"/></symbol><symbol overflow="visible" id="f"><path d="M3.375 0v-8.203H.312v-1.11h7.375v1.11H4.61V0zm0 0"/></symbol><symbol overflow="visible" id="g"><path d="M5.25-.828c-.418.355-.824.61-1.22.765-.385.145-.803.22-1.25.22-.75 0-1.323-.18-1.717-.548C.662-.755.47-1.22.47-1.78c0-.322.07-.618.218-.892.156-.28.35-.504.593-.672.25-.164.525-.29.83-.375.218-.05.554-.108 1.015-.17.914-.102 1.594-.235 2.03-.39.01-.157.017-.255.017-.298 0-.47-.11-.797-.328-.984-.293-.258-.727-.39-1.297-.39-.543 0-.945.093-1.203.28-.25.188-.438.524-.563 1l-1.108-.14c.094-.477.254-.864.484-1.157.24-.3.578-.53 1.016-.686.445-.157.957-.235 1.53-.235.583 0 1.052.07 1.407.202.363.137.628.31.796.516.164.2.285.453.36.766.03.2.046.554.046 1.062v1.516c0 1.062.024 1.734.08 2.015.05.282.143.555.28.813H5.484c-.117-.238-.195-.516-.234-.828zM5.156-3.39c-.418.18-1.04.324-1.86.437-.468.074-.804.152-1 .234-.198.087-.35.212-.452.376-.106.156-.157.336-.157.53 0 .306.114.56.344.767.228.2.568.297 1.017.297.437 0 .828-.094 1.172-.28.343-.197.596-.462.764-.798.114-.25.172-.63.172-1.14zm0 0"/></symbol><symbol overflow="visible" id="h"><path d="M.406-2.016l1.125-.17c.064.448.24.795.532 1.045.29.242.696.36 1.22.36.52 0 .905-.103 1.155-.314.258-.218.39-.472.39-.765 0-.257-.116-.46-.343-.61-.156-.1-.546-.233-1.171-.39-.836-.206-1.415-.39-1.735-.546-.324-.156-.57-.367-.734-.64-.168-.27-.25-.57-.25-.907 0-.3.066-.578.203-.828.133-.26.32-.474.562-.642.175-.133.413-.242.718-.328.313-.094.645-.14 1-.14.52 0 .977.077 1.375.234.406.148.703.35.89.61.196.26.333.61.407 1.046l-1.125.156c-.055-.35-.2-.625-.438-.812-.242-.196-.585-.297-1.03-.297-.524 0-.9.09-1.126.266-.23.167-.342.37-.342.61 0 .147.046.276.14.39.094.125.238.23.438.312.113.043.453.137 1.015.28.814.22 1.376.4 1.69.532.32.137.57.34.75.61.186.262.28.586.28.97 0 .385-.117.745-.344 1.077-.218.336-.54.594-.953.78-.418.189-.89.282-1.422.282-.874 0-1.542-.18-2-.547C.82-.755.53-1.298.407-2.017zm0 0"/></symbol><symbol overflow="visible" id="i"><path d="M.86 0v-9.313H2V-4l2.703-2.734h1.484l-2.578 2.5L6.452 0H5.047L2.813-3.453 2-2.673V0zm0 0"/></symbol><symbol overflow="visible" id="j"><path d="M.656.156l.547-2.703H.14v-.937h1.25l.47-2.313H.14v-.937h1.922L2.61-9.47h.953l-.547 2.736h2l.546-2.735h.954L5.97-6.733h1.093v.937H5.78l-.483 2.313h1.766v.937H5.109L4.56.156H3.61l.546-2.703h-2L1.61.156zm1.688-3.64h2l.468-2.313h-2zm0 0"/></symbol><symbol overflow="visible" id="k"><path d="M.547-2.438l1.187-.11c.094.595.3 1.04.625 1.33.32.292.71.437 1.17.437.552 0 1.017-.208 1.392-.626.383-.414.578-.96.578-1.64 0-.657-.184-1.173-.547-1.548-.367-.375-.844-.562-1.437-.562-.375 0-.715.086-1.016.25-.293.168-.523.383-.688.64L.75-4.406l.89-4.766h4.626v1.078H2.562l-.5 2.5c.55-.383 1.133-.578 1.75-.578.813 0 1.493.28 2.047.844.562.562.843 1.29.843 2.172 0 .844-.246 1.574-.734 2.187C5.374-.22 4.562.157 3.53.157c-.842 0-1.538-.234-2.077-.703-.53-.476-.836-1.11-.906-1.89zm0 0"/></symbol><symbol overflow="visible" id="l"><path d="M4.203 0v-2.234H.173V-3.28l4.233-6.033h.938v6.032H6.61v1.046H5.343V0zm0-3.28v-4.19L1.28-3.28zm0 0"/></symbol><symbol overflow="visible" id="m"><path d="M2.297-5.047c-.47-.176-.82-.422-1.047-.734-.23-.322-.344-.708-.344-1.157 0-.676.24-1.243.72-1.704.487-.47 1.14-.704 1.952-.704.813 0 1.46.242 1.953.72.5.468.75 1.042.75 1.718 0 .43-.116.804-.343 1.125-.23.31-.574.557-1.03.733.57.188 1.003.492 1.296.906.3.417.453.913.453 1.484 0 .793-.28 1.46-.843 2-.563.543-1.305.812-2.22.812-.917 0-1.655-.27-2.218-.812C.812-1.196.53-1.876.53-2.687c0-.602.15-1.11.454-1.516.313-.414.75-.695 1.313-.844zm-.235-1.937c0 .437.14.796.422 1.078.29.28.66.422 1.11.422.445 0 .812-.133 1.094-.407.28-.282.42-.626.42-1.032 0-.414-.147-.766-.436-1.047-.293-.288-.652-.436-1.078-.436-.438 0-.805.14-1.094.422-.293.28-.438.617-.438 1zm-.36 4.296c0 .325.08.64.236.954.156.304.382.54.687.703.3.167.63.25.984.25.538 0 .988-.173 1.343-.517.352-.35.53-.8.53-1.344 0-.55-.182-1.005-.545-1.36-.368-.363-.825-.547-1.375-.547-.532 0-.977.18-1.33.53-.354.357-.53.798-.53 1.33zm0 0"/></symbol><symbol overflow="visible" id="n"><path d="M1.188 0v-1.297h1.296V0zm0 0"/></symbol><symbol overflow="visible" id="o"><path d="M.61-8.094v-1.094h6.03v.89C6.048-7.66 5.458-6.82 4.876-5.78 4.29-4.74 3.845-3.665 3.53-2.563 3.3-1.782 3.157-.927 3.095 0H1.922c.008-.727.148-1.61.422-2.64.28-1.04.676-2.04 1.187-3 .51-.97 1.056-1.786 1.642-2.454zm0 0"/></symbol><symbol overflow="visible" id="p"><path d="M.75-7.078c0-.656.164-1.22.5-1.688.344-.468.828-.703 1.453-.703.594 0 1.078.212 1.453.626.383.418.578 1.03.578 1.844 0 .78-.195 1.387-.578 1.813-.386.43-.867.64-1.437.64-.564 0-1.033-.207-1.408-.625C.938-5.586.75-6.222.75-7.078zm2-1.594c-.293 0-.53.125-.72.375-.186.242-.28.688-.28 1.344 0 .594.094 1.016.28 1.266.197.242.44.36.72.36.28 0 .516-.118.703-.36.188-.25.28-.704.28-1.36 0-.6-.092-1.023-.28-1.266-.187-.238-.422-.36-.703-.36zm0 9.016L7.844-9.47h.922L3.687.345zm4.016-2.531c0-.665.164-1.227.5-1.688.343-.47.832-.703 1.468-.703.582 0 1.067.21 1.454.625.382.418.578 1.03.578 1.844 0 .782-.2 1.387-.594 1.813-.387.426-.867.64-1.438.64-.562 0-1.03-.21-1.406-.624-.375-.427-.562-1.064-.562-1.907zm2-1.61c-.293 0-.532.125-.72.375-.187.25-.28.703-.28 1.36 0 .585.093 1 .28 1.25.196.25.438.375.72.375.29 0 .53-.126.718-.376.188-.25.282-.695.282-1.343 0-.602-.102-1.024-.297-1.266-.19-.25-.423-.375-.704-.375zm0 0"/></symbol><symbol overflow="visible" id="q"><path d="M1 0v-9.313h3.203c.727 0 1.28.047 1.656.14.538.126 1 .353 1.374.673.49.406.852.934 1.094 1.578.25.65.375 1.387.375 2.22 0 .71-.086 1.34-.25 1.89-.168.542-.383.992-.64 1.343-.262.357-.547.638-.86.845-.305.21-.672.367-1.11.47-.43.104-.92.155-1.484.155zm1.234-1.094H4.22c.612 0 1.093-.054 1.436-.172.352-.113.633-.273.844-.484.29-.29.516-.68.672-1.172.164-.5.25-1.098.25-1.797 0-.975-.164-1.725-.484-2.25-.313-.518-.7-.866-1.157-1.046-.335-.125-.866-.187-1.593-.187H2.234zm0 0"/></symbol><symbol overflow="visible" id="r"><path d="M.438-3.375c0-1.25.343-2.172 1.03-2.766.583-.5 1.29-.75 2.126-.75.926 0 1.68.304 2.265.906.593.605.89 1.445.89 2.515 0 .868-.133 1.548-.39 2.048-.262.5-.64.89-1.14 1.172-.5.27-1.044.406-1.626.406-.95 0-1.715-.3-2.297-.906-.574-.602-.86-1.477-.86-2.625zm1.17 0c0 .867.19 1.516.564 1.953.375.43.848.64 1.422.64.562 0 1.03-.21 1.406-.64.383-.437.578-1.098.578-1.984 0-.832-.195-1.46-.578-1.89-.375-.438-.844-.657-1.406-.657-.574 0-1.047.215-1.422.64-.375.43-.563 1.075-.563 1.938zm0 0"/></symbol><symbol overflow="visible" id="s"><path d="M2.094 0L.03-6.734h1.19l1.077 3.89.39 1.438c.02-.07.14-.535.36-1.39L4.11-6.735h1.17l1.017 3.906.344 1.28.376-1.296 1.156-3.89h1.11L7.17 0H6L4.922-4.03l-.266-1.157L3.296 0zm0 0"/></symbol><symbol overflow="visible" id="t"><path d="M.86 0v-6.734h1.03v.953c.49-.74 1.204-1.11 2.14-1.11.407 0 .775.074 1.11.218.344.15.598.34.766.578.176.23.297.512.36.844.04.21.062.578.062 1.11V0h-1.14v-4.094c0-.468-.047-.816-.14-1.047-.087-.227-.243-.41-.47-.548-.22-.144-.48-.218-.78-.218-.493 0-.915.156-1.267.468-.354.305-.53.887-.53 1.75V0zm0 0"/></symbol><symbol overflow="visible" id="u"><path d="M5.234 0v-.844c-.43.668-1.058 1-1.89 1-.53 0-1.028-.148-1.485-.437C1.41-.583 1.06-1 .81-1.53.563-2.063.438-2.673.438-3.36c0-.675.114-1.285.344-1.828.228-.55.568-.972 1.017-1.265.445-.29.945-.438 1.5-.438.406 0 .765.09 1.078.265.32.168.582.387.78.656v-3.343h1.142V0zm-3.61-3.36c0 .868.177 1.512.532 1.938.364.43.797.64 1.297.64.5 0 .922-.202 1.266-.61.35-.413.53-1.038.53-1.874 0-.925-.18-1.6-.53-2.03-.357-.438-.794-.657-1.314-.657-.51 0-.937.21-1.28.625-.337.418-.5 1.074-.5 1.97zm0 0"/></symbol><symbol overflow="visible" id="v"><path d="M6.547-1.094V0H.39C.38-.27.427-.535.53-.797c.157-.414.407-.828.75-1.234.345-.408.845-.876 1.5-1.408C3.79-4.27 4.474-4.925 4.83-5.405c.352-.49.53-.946.53-1.375 0-.458-.163-.837-.483-1.142-.324-.312-.746-.47-1.266-.47-.555 0-.997.17-1.33.5-.323.326-.49.78-.5 1.36L.61-6.655c.08-.875.382-1.54.906-2 .52-.457 1.222-.688 2.11-.688.894 0 1.6.25 2.124.75.52.492.78 1.102.78 1.828 0 .375-.077.746-.233 1.11-.15.355-.4.734-.75 1.14-.356.4-.945.938-1.766 1.625-.686.574-1.132.964-1.327 1.17-.187.212-.344.42-.47.626zm0 0"/></symbol><symbol overflow="visible" id="w"><path d="M.547-2.453l1.14-.156c.133.65.36 1.118.672 1.407.312.28.695.422 1.156.422.53 0 .976-.18 1.343-.548.374-.375.562-.836.562-1.39 0-.532-.172-.962-.516-1.298C4.57-4.36 4.14-4.53 3.61-4.53c-.22 0-.493.042-.813.124l.125-1c.082.01.144.015.187.015.488 0 .925-.126 1.312-.376.394-.257.594-.656.594-1.187 0-.414-.15-.758-.438-1.03-.28-.283-.648-.423-1.094-.423-.45 0-.82.14-1.11.422-.292.28-.483.7-.577 1.25l-1.14-.204c.144-.757.46-1.347.952-1.765.5-.426 1.113-.64 1.843-.64.508 0 .977.11 1.406.327.425.22.753.516.984.89.226.376.343.778.343 1.204 0 .4-.11.762-.328 1.094-.22.336-.54.594-.954.78.54.138.96.403 1.266.798.312.398.47.898.47 1.5 0 .813-.298 1.508-.892 2.078-.594.563-1.344.844-2.25.844-.813 0-1.492-.242-2.03-.734-.544-.49-.853-1.118-.923-1.89zm0 0"/></symbol><symbol overflow="visible" id="x"><path d="M4.844 0h-1.14v-7.28c-.282.26-.65.526-1.095.796-.438.26-.837.453-1.188.578v-1.11c.633-.29 1.19-.648 1.672-1.078.476-.426.816-.844 1.015-1.25h.734zm0 0"/></symbol></defs><path d="M0 21.605V4c0-1.102.39-2.047 1.172-2.828C1.952.392 2.898 0 4 0h574.547c1.1 0 2.047.39 2.828 1.172.78.78 1.172 1.726 1.172 2.828v17.605c0 1.106-.39 2.047-1.172 2.83-.78.78-1.727 1.17-2.828 1.17H4c-1.102 0-2.047-.39-2.828-1.17C.392 23.65 0 22.71 0 21.604zm0 0" fill="#f0f0f0"/><path d="M0 21.605V4c0-1.102.39-2.047 1.172-2.828C1.952.392 2.898 0 4 0h277.672c1.105 0 2.047.39 2.828 1.172.78.78 1.172 1.726 1.172 2.828v17.605c0 1.106-.39 2.047-1.172 2.83-.78.78-1.723 1.17-2.828 1.17H4c-1.102 0-2.047-.39-2.828-1.17C.392 23.65 0 22.71 0 21.604zm0 0" fill="#63ca63"/><use xlink:href="#a" x="61.008" y="72.211" width="100%" height="100%" transform="translate(-54.605 -54.605)"/><use xlink:href="#b" x="71.673" y="72.211" width="100%" height="100%" transform="translate(-54.605 -54.605)"/><use xlink:href="#c" x="78.794" y="72.211" width="100%" height="100%" transform="translate(-54.605 -54.605)"/><use xlink:href="#d" x="81.638" y="72.211" width="100%" height="100%" transform="translate(-54.605 -54.605)"/><use xlink:href="#e" x="85.195" y="72.211" width="100%" height="100%" transform="translate(-54.605 -54.605)"/><use xlink:href="#f" x="88.04" y="72.211" width="100%" height="100%" transform="translate(-54.605 -54.605)"/><use xlink:href="#g" x="95.86" y="72.211" width="100%" height="100%" transform="translate(-54.605 -54.605)"/><use xlink:href="#h" x="102.981" y="72.211" width="100%" height="100%" transform="translate(-54.605 -54.605)"/><use xlink:href="#i" x="109.383" y="72.211" width="100%" height="100%" transform="translate(-54.605 -54.605)"/><use xlink:href="#j" x="115.784" y="72.211" width="100%" height="100%" transform="translate(-54.605 -54.605)"/><use xlink:href="#k" x="122.905" y="72.211" width="100%" height="100%" transform="translate(-54.605 -54.605)"/><use xlink:href="#l" x="594.441" y="72.211" width="100%" height="100%" transform="translate(-54.605 -54.605)"/><use xlink:href="#m" x="601.562" y="72.211" width="100%" height="100%" transform="translate(-54.605 -54.605)"/><use xlink:href="#n" x="608.682" y="72.211" width="100%" height="100%" transform="translate(-54.605 -54.605)"/><use xlink:href="#o" x="612.24" y="72.211" width="100%" height="100%" transform="translate(-54.605 -54.605)"/><use xlink:href="#p" x="619.36" y="72.211" width="100%" height="100%" transform="translate(-54.605 -54.605)"/><path d="M12.805 53.614V36.012c0-1.105.39-2.05 1.172-2.832.78-.78 1.723-1.172 2.828-1.172h561.742c1.102 0 2.047.39 2.828 1.172.782.78 1.172 1.727 1.172 2.832v17.602c0 1.105-.39 2.05-1.172 2.832-.78.78-1.726 1.172-2.828 1.172H16.805c-1.105 0-2.047-.39-2.828-1.172-.78-.78-1.172-1.727-1.172-2.832zm0 0" fill="#f0f0f0"/><path d="M12.805 53.614V36.012c0-1.105.39-2.05 1.172-2.832.78-.78 1.723-1.172 2.828-1.172H316.08c1.104 0 2.05.39 2.83 1.172.782.78 1.172 1.727 1.172 2.832v17.602c0 1.105-.39 2.05-1.17 2.832-.783.78-1.728 1.172-2.833 1.172H16.804c-1.105 0-2.047-.39-2.828-1.172-.78-.78-1.172-1.727-1.172-2.832zm0 0" fill="#63ca63"/><use xlink:href="#q" x="73.811" y="104.219" width="100%" height="100%" transform="translate(-54.605 -54.605)"/><use xlink:href="#r" x="83.057" y="104.219" width="100%" height="100%" transform="translate(-54.605 -54.605)"/><use xlink:href="#s" x="90.178" y="104.219" width="100%" height="100%" transform="translate(-54.605 -54.605)"/><use xlink:href="#t" x="99.424" y="104.219" width="100%" height="100%" transform="translate(-54.605 -54.605)"/><use xlink:href="#c" x="106.544" y="104.219" width="100%" height="100%" transform="translate(-54.605 -54.605)"/><use xlink:href="#r" x="109.389" y="104.219" width="100%" height="100%" transform="translate(-54.605 -54.605)"/><use xlink:href="#g" x="116.509" y="104.219" width="100%" height="100%" transform="translate(-54.605 -54.605)"/><use xlink:href="#u" x="123.63" y="104.219" width="100%" height="100%" transform="translate(-54.605 -54.605)"/><use xlink:href="#f" x="130.75" y="104.219" width="100%" height="100%" transform="translate(-54.605 -54.605)"/><use xlink:href="#g" x="138.571" y="104.219" width="100%" height="100%" transform="translate(-54.605 -54.605)"/><use xlink:href="#h" x="145.692" y="104.219" width="100%" height="100%" transform="translate(-54.605 -54.605)"/><use xlink:href="#i" x="152.093" y="104.219" width="100%" height="100%" transform="translate(-54.605 -54.605)"/><use xlink:href="#j" x="158.495" y="104.219" width="100%" height="100%" transform="translate(-54.605 -54.605)"/><use xlink:href="#v" x="165.615" y="104.219" width="100%" height="100%" transform="translate(-54.605 -54.605)"/><use xlink:href="#k" x="594.441" y="104.219" width="100%" height="100%" transform="translate(-54.605 -54.605)"/><use xlink:href="#l" x="601.562" y="104.219" width="100%" height="100%" transform="translate(-54.605 -54.605)"/><use xlink:href="#n" x="608.682" y="104.219" width="100%" height="100%" transform="translate(-54.605 -54.605)"/><use xlink:href="#w" x="612.24" y="104.219" width="100%" height="100%" transform="translate(-54.605 -54.605)"/><use xlink:href="#p" x="619.36" y="104.219" width="100%" height="100%" transform="translate(-54.605 -54.605)"/><path d="M12.805 85.622V68.02c0-1.105.39-2.05 1.172-2.832.78-.78 1.723-1.172 2.828-1.172h561.742c1.102 0 2.047.39 2.828 1.172.782.78 1.172 1.727 1.172 2.832v17.602c0 1.105-.39 2.05-1.172 2.832-.78.78-1.726 1.17-2.828 1.17H16.805c-1.105 0-2.047-.39-2.828-1.17-.78-.782-1.172-1.727-1.172-2.832zm0 0" fill="#f0f0f0"/><path d="M12.805 85.622V68.02c0-1.105.39-2.05 1.172-2.832.78-.78 1.723-1.172 2.828-1.172h72.02c1.105 0 2.047.39 2.828 1.172.78.78 1.172 1.727 1.172 2.832v17.602c0 1.105-.39 2.05-1.172 2.832-.78.78-1.723 1.17-2.828 1.17h-72.02c-1.105 0-2.047-.39-2.828-1.17-.78-.782-1.172-1.727-1.172-2.832zm0 0" fill="#63ca63"/><use xlink:href="#q" x="73.811" y="136.227" width="100%" height="100%" transform="translate(-54.605 -54.605)"/><use xlink:href="#r" x="83.057" y="136.227" width="100%" height="100%" transform="translate(-54.605 -54.605)"/><use xlink:href="#s" x="90.178" y="136.227" width="100%" height="100%" transform="translate(-54.605 -54.605)"/><use xlink:href="#t" x="99.424" y="136.227" width="100%" height="100%" transform="translate(-54.605 -54.605)"/><use xlink:href="#c" x="106.544" y="136.227" width="100%" height="100%" transform="translate(-54.605 -54.605)"/><use xlink:href="#r" x="109.389" y="136.227" width="100%" height="100%" transform="translate(-54.605 -54.605)"/><use xlink:href="#g" x="116.509" y="136.227" width="100%" height="100%" transform="translate(-54.605 -54.605)"/><use xlink:href="#u" x="123.63" y="136.227" width="100%" height="100%" transform="translate(-54.605 -54.605)"/><use xlink:href="#f" x="130.75" y="136.227" width="100%" height="100%" transform="translate(-54.605 -54.605)"/><use xlink:href="#g" x="138.571" y="136.227" width="100%" height="100%" transform="translate(-54.605 -54.605)"/><use xlink:href="#h" x="145.692" y="136.227" width="100%" height="100%" transform="translate(-54.605 -54.605)"/><use xlink:href="#i" x="152.093" y="136.227" width="100%" height="100%" transform="translate(-54.605 -54.605)"/><use xlink:href="#j" x="158.495" y="136.227" width="100%" height="100%" transform="translate(-54.605 -54.605)"/><use xlink:href="#w" x="165.615" y="136.227" width="100%" height="100%" transform="translate(-54.605 -54.605)"/><use xlink:href="#x" x="594.441" y="136.227" width="100%" height="100%" transform="translate(-54.605 -54.605)"/><use xlink:href="#w" x="601.562" y="136.227" width="100%" height="100%" transform="translate(-54.605 -54.605)"/><use xlink:href="#n" x="608.682" y="136.227" width="100%" height="100%" transform="translate(-54.605 -54.605)"/><use xlink:href="#o" x="612.24" y="136.227" width="100%" height="100%" transform="translate(-54.605 -54.605)"/><use xlink:href="#p" x="619.36" y="136.227" width="100%" height="100%" transform="translate(-54.605 -54.605)"/><path d="M12.805 117.63v-17.602c0-1.106.39-2.05 1.172-2.832.78-.78 1.723-1.172 2.828-1.172h561.742c1.102 0 2.047.39 2.828 1.172.782.78 1.172 1.726 1.172 2.832v17.6c0 1.107-.39 2.052-1.172 2.833-.78.783-1.726 1.173-2.828 1.173H16.805c-1.105 0-2.047-.39-2.828-1.172-.78-.78-1.172-1.725-1.172-2.83zm0 0" fill="#f0f0f0"/><path d="M12.805 117.63v-17.602c0-1.106.39-2.05 1.172-2.832.78-.78 1.723-1.172 2.828-1.172h436.11c1.105 0 2.046.39 2.828 1.172.78.78 1.172 1.726 1.172 2.832v17.6c0 1.107-.39 2.052-1.172 2.833-.782.783-1.723 1.173-2.828 1.173H16.805c-1.105 0-2.047-.39-2.828-1.172-.78-.78-1.172-1.725-1.172-2.83zm0 0" fill="#63ca63"/><use xlink:href="#q" x="73.811" y="168.235" width="100%" height="100%" transform="translate(-54.605 -54.605)"/><use xlink:href="#r" x="83.057" y="168.235" width="100%" height="100%" transform="translate(-54.605 -54.605)"/><use xlink:href="#s" x="90.178" y="168.235" width="100%" height="100%" transform="translate(-54.605 -54.605)"/><use xlink:href="#t" x="99.424" y="168.235" width="100%" height="100%" transform="translate(-54.605 -54.605)"/><use xlink:href="#c" x="106.544" y="168.235" width="100%" height="100%" transform="translate(-54.605 -54.605)"/><use xlink:href="#r" x="109.389" y="168.235" width="100%" height="100%" transform="translate(-54.605 -54.605)"/><use xlink:href="#g" x="116.509" y="168.235" width="100%" height="100%" transform="translate(-54.605 -54.605)"/><use xlink:href="#u" x="123.63" y="168.235" width="100%" height="100%" transform="translate(-54.605 -54.605)"/><use xlink:href="#f" x="130.75" y="168.235" width="100%" height="100%" transform="translate(-54.605 -54.605)"/><use xlink:href="#g" x="138.571" y="168.235" width="100%" height="100%" transform="translate(-54.605 -54.605)"/><use xlink:href="#h" x="145.692" y="168.235" width="100%" height="100%" transform="translate(-54.605 -54.605)"/><use xlink:href="#i" x="152.093" y="168.235" width="100%" height="100%" transform="translate(-54.605 -54.605)"/><use xlink:href="#j" x="158.495" y="168.235" width="100%" height="100%" transform="translate(-54.605 -54.605)"/><use xlink:href="#l" x="165.615" y="168.235" width="100%" height="100%" transform="translate(-54.605 -54.605)"/><use xlink:href="#o" x="594.441" y="168.235" width="100%" height="100%" transform="translate(-54.605 -54.605)"/><use xlink:href="#m" x="601.562" y="168.235" width="100%" height="100%" transform="translate(-54.605 -54.605)"/><use xlink:href="#n" x="608.682" y="168.235" width="100%" height="100%" transform="translate(-54.605 -54.605)"/><use xlink:href="#x" x="612.24" y="168.235" width="100%" height="100%" transform="translate(-54.605 -54.605)"/><use xlink:href="#p" x="619.36" y="168.235" width="100%" height="100%" transform="translate(-54.605 -54.605)"/></svg>